# xmcd
#
# Track frame offsets:
#	183
#	13080
#	25148
#	33050
#	42390
#	54678
#	67150
#	79015
#	91983
#	103560
#	116588
#	127748
#	140458
#	154023
#	166448
#	176433
#	188778
#	200975
#
# Disc length: 2838 seconds
#
# Revision: 5
# Processed by: cddbd v1.5.2PL0 Copyright (c) Steve Scherf et al.
# Submitted via: EasyCDDAExtractor 16.0.1.1
#
DISCID=f00b1412
DTITLE=Big Mama Thornton - Hound Dog_The Peacock Recordings
DYEAR=1992
DGENRE=Blues
TTITLE0=Big Mama Thornton - Hound Dog
TTITLE1=Big Mama Thornton - My Man Called Me
TTITLE2=Big Mama Thornton - I Smell a Rat
TTITLE3=Big Mama Thornton - They Call Me Big Mama
TTITLE4=Big Mama Thornton - You Don't Move Me No More
TTITLE5=Big Mama Thornton - Let Your Tears Fall Baby
TTITLE6=Big Mama Thornton - Rock-a-bye Baby
TTITLE7=Big Mama Thornton and Johnny Ace - Yes, Baby
TTITLE8=Big Mama Thornton - How Come
TTITLE9=Big Mama Thornton - Nightmare
TTITLE10=Big Mama Thornton - Stop A-Hoppin' on Me
TTITLE11=Big Mama Thornton - Just Like a Dog, Barking up the Wrong Tree
TTITLE12=Big Mama Thornton - Walking Blues
TTITLE13=Big Mama Thornton - The Big Change
TTITLE14=Big Mama Thornton - Hard Times
TTITLE15=Big Mama Thornton - Laugh, Laugh, Laugh
TTITLE16=Big Mama Thornton - The Fish
TTITLE17=Big Mama Thornton - I've Searched the Whole World Over [with false st
TTITLE17=art
EXTD=
EXTT0=
EXTT1=
EXTT2=
EXTT3=
EXTT4=
EXTT5=
EXTT6=
EXTT7=
EXTT8=
EXTT9=
EXTT10=
EXTT11=
EXTT12=
EXTT13=
EXTT14=
EXTT15=
EXTT16=
EXTT17=
PLAYORDER=
